<?xml version="1.0" encoding="UTF-8" standalone="no"?>
<!-- Created with Inkscape (http://www.inkscape.org/) -->

<svg
   version="1.1"
   id="svg105"
   width="734.5"
   height="65.937408"
   viewBox="0 0 734.5 65.937408"
   sodipodi:docname="icons.svg"
   inkscape:version="1.2.2 (b0a8486541, 2022-12-01)"
   xmlns:inkscape="http://www.inkscape.org/namespaces/inkscape"
   xmlns:sodipodi="http://sodipodi.sourceforge.net/DTD/sodipodi-0.dtd"
   xmlns="http://www.w3.org/2000/svg"
   xmlns:svg="http://www.w3.org/2000/svg">
  <defs
     id="defs109" />
  <sodipodi:namedview
     id="namedview107"
     pagecolor="#ffffff"
     bordercolor="#000000"
     borderopacity="0.25"
     inkscape:showpageshadow="2"
     inkscape:pageopacity="0.0"
     inkscape:pagecheckerboard="0"
     inkscape:deskcolor="#d1d1d1"
     showgrid="false"
     inkscape:zoom="0.82314815"
     inkscape:cx="450.10124"
     inkscape:cy="33.408324"
     inkscape:window-width="1366"
     inkscape:window-height="731"
     inkscape:window-x="0"
     inkscape:window-y="0"
     inkscape:window-maximized="1"
     inkscape:current-layer="g111" />
  <g
     inkscape:groupmode="layer"
     inkscape:label="Image"
     id="g111"
     transform="translate(-10.144544,-6.653633)">
    <path
       style="fill:#000000"
       d="m 35.144544,57.212423 c -21.554566,-13.08167 -25,-15.5049 -25,-17.58289 0,-2.07972 3.461718,-4.50539 25.25,-17.69302 l 25.25,-15.28288 v 32.94303 c 0,18.11866 -0.1125,32.90826 -0.25,32.86576 -0.1375,-0.0425 -11.5,-6.90499 -25.25,-15.25 z m 35.5,-17.70607 c 0,-18.19659 0.3375,-32.90718 0.75,-32.69021 0.4125,0.21696 12.137056,7.26997 26.054568,15.67335 21.105198,12.74329 25.254018,15.61901 24.999998,17.3285 -0.22036,1.48291 -6.6642,5.8923 -23.304566,15.94686 -12.65,7.64347 -24.2375,14.55624 -25.75,15.36171 l -2.75,1.46448 z m 189.073896,32.65924 c 0.70626,-0.65134 97.32496,-30.63511 98.70215,-30.63033 0.99086,0.003 1.21435,3.41264 1,15.25442 l -0.27605,15.25 -49.9261,0.25944 c -27.45936,0.14269 -49.73436,0.0826 -49.5,-0.13353 z m 111.7146,-2.52357 c -4.37648,-3.91038 -4.58471,-9.76068 -0.49305,-13.85234 2.33057,-2.33056 3.5854,-2.75 8.22728,-2.75 h 5.47727 v -21.75 c 0,-25.30806 -0.0813,-25.15786 8.65886,-16 7.01071,7.34578 10.31847,14.06929 10.33137,21 0.0134,7.21024 -2.46244,7.28631 -3.41509,0.10493 -0.76302,-5.75198 -3.8965,-12.65728 -6.13305,-13.51552 -0.80716,-0.30974 -2.13683,-0.008 -2.95482,0.67116 -1.22486,1.01654 -1.48727,4.73313 -1.48727,21.06483 0,21.50281 -0.50421,24.09974 -5.14503,26.4996 -4.55092,2.35337 -9.39548,1.80737 -13.06647,-1.47266 z m 95.52222,2.19989 c -4.1737,-0.81102 -9.54182,-8.48259 -17.40211,-24.86937 -7.38015,-15.38578 -12.64294,-23.43286 -15.32511,-23.43286 -2.32469,0 -6.50967,5.57312 -11.05194,14.71785 -4.40772,8.87381 -4.6683,9.17697 -6.98197,8.1228 -2.84076,-1.29434 -2.66961,-1.96032 3.60182,-14.01479 5.05868,-9.72342 9.44038,-13.82586 14.76702,-13.82586 5.79688,0 9.92763,5.29291 19.17296,24.56714 7.45718,15.54638 12.64305,23.43286 15.40861,23.43286 2.28258,0 7.33283,-6.7727 11.5554,-15.49654 3.85568,-7.96582 4.24077,-8.41738 6.27616,-7.35954 1.19264,0.61985 2.30902,1.24412 2.48084,1.38727 0.6533,0.5443 -8.79432,18.29387 -11.36082,21.34399 -2.28046,2.71017 -7.66495,6.43718 -8.65192,5.98864 -0.16481,-0.0749 -1.28484,-0.32762 -2.48894,-0.56159 z m 116.68928,-2.30223 v -3 h 8.48222 8.48222 l 0.26778,-24.25 0.26778,-24.25 h 20 20 l 0.26778,24.25 0.26778,24.25 h 8.98222 8.98222 v 3 3 h -12 -12 v -24.5 -24.5 h -14.5 -14.5 v 24.5 24.5 h -11.5 -11.5 z m -80.25225,-5.7964 c -3.9916,-6.55471 -4.74492,-8.58535 -4.73,-12.75 l 0.0178,-4.9536 5.03652,7.85582 5.03652,7.85581 13.68099,-21.60581 c 7.52455,-11.8832 13.91263,-21.59237 14.19573,-21.57594 0.2831,0.0164 3.78711,5.30394 7.78669,11.75 3.99958,6.44607 10.12272,16.1596 13.60697,21.58562 l 6.33502,9.8655 4.89302,-7.8655 4.89299,-7.8655 0.30611,4.78224 c 0.27192,4.2482 -0.22785,5.62514 -4.4754,12.33028 -2.62982,4.15143 -5.08213,7.73385 -5.44956,7.96094 -0.36743,0.22708 -6.40578,-8.69655 -13.41854,-19.83029 -7.01277,-11.13374 -13.24821,-20.77521 -13.85655,-21.42548 -0.8268,-0.8838 -4.51455,4.2282 -14.60606,20.24711 -7.425,11.78618 -13.72601,21.43072 -14.00225,21.43231 -0.27624,0.002 -2.63874,-3.50549 -5.25,-7.79351 z m 200.25225,-11.58912 c 0,-10.78796 -0.33281,-19.61448 -0.73958,-19.61448 -0.40676,0 -8.50676,7.75768 -18,17.23929 l -17.26042,17.23928 v -3.99843 c 0,-3.86847 0.6663,-4.66413 20.5,-24.48014 l 20.5,-20.4817 v 20.24085 c 0,11.13247 0.33281,20.24085 0.73958,20.24085 0.40676,0 8.50676,-7.75767 18,-17.23928 l 17.26042,-17.23928 v 3.83651 c 0,3.37753 -0.80753,4.67502 -6.75,10.84541 -3.7125,3.8549 -12.9375,12.86266 -20.5,20.01725 l -13.75,13.00834 z"
       id="path223" />
  </g>
</svg>
